<mxfile host="app.diagrams.net" modified="2021-04-18T22:08:54.859Z" agent="5.0 (Windows NT 10.0; Win64; x64) AppleWebKit/537.36 (KHTML, like Gecko) Chrome/89.0.4389.128 Safari/537.36" etag="JDLaXDcatqBIv1_tvEZj" version="14.6.1" type="github" pages="2">
  <diagram id="XrzaLsvKxYj4yZ1JKpfQ" name="Diagrama de contexto">
    <mxGraphModel dx="1102" dy="525" grid="1" gridSize="10" guides="1" tooltips="1" connect="1" arrows="1" fold="1" page="1" pageScale="1" pageWidth="827" pageHeight="1169" math="0" shadow="0">
      <root>
        <mxCell id="0" />
        <mxCell id="1" parent="0" />
        <object placeholders="1" c4Name="Sunat&#xa;" c4Type="Person" c4Description="Entidad del gobierno" label="&lt;b&gt;%c4Name%&lt;/b&gt;&lt;div&gt;[%c4Type%]&lt;/div&gt;&lt;br&gt;&lt;div&gt;%c4Description%&lt;/div&gt;" id="3CHzZll-UO-xtZC3JVt_-1">
          <mxCell style="html=1;dashed=0;whitespace=wrap;fillColor=#08427b;strokeColor=none;fontColor=#ffffff;shape=mxgraph.c4.person;align=center;metaEdit=1;points=[[0.5,0,0],[1,0.5,0],[1,0.75,0],[0.75,1,0],[0.5,1,0],[0.25,1,0],[0,0.75,0],[0,0.5,0]];metaData={&quot;c4Type&quot;:{&quot;editable&quot;:false}};" parent="1" vertex="1">
            <mxGeometry x="120" y="240" width="110.00000000000001" height="140" as="geometry" />
          </mxCell>
        </object>
        <object placeholders="1" c4Name="Cliente&#xa;" c4Type="Person" c4Description="Cliente del banco" label="&lt;b&gt;%c4Name%&lt;/b&gt;&lt;div&gt;[%c4Type%]&lt;/div&gt;&lt;br&gt;&lt;div&gt;%c4Description%&lt;/div&gt;" id="3CHzZll-UO-xtZC3JVt_-2">
          <mxCell style="html=1;dashed=0;whitespace=wrap;fillColor=#08427b;strokeColor=none;fontColor=#ffffff;shape=mxgraph.c4.person;align=center;metaEdit=1;points=[[0.5,0,0],[1,0.5,0],[1,0.75,0],[0.75,1,0],[0.5,1,0],[0.25,1,0],[0,0.75,0],[0,0.5,0]];metaData={&quot;c4Type&quot;:{&quot;editable&quot;:false}};" parent="1" vertex="1">
            <mxGeometry x="335" y="65" width="110.00000000000001" height="140" as="geometry" />
          </mxCell>
        </object>
        <mxCell id="DAYWDoBDdN8zVbQUzcvG-6" style="edgeStyle=orthogonalEdgeStyle;rounded=0;orthogonalLoop=1;jettySize=auto;html=1;exitX=0;exitY=0.5;exitDx=0;exitDy=0;exitPerimeter=0;" edge="1" parent="1" source="3CHzZll-UO-xtZC3JVt_-4">
          <mxGeometry relative="1" as="geometry">
            <mxPoint x="230" y="325" as="targetPoint" />
          </mxGeometry>
        </mxCell>
        <object placeholders="1" c4Name="Aplicativo &quot;PrestaRapi&quot;" c4Type="Software System" c4Description="Plataforma movil para solicitar prestamos &#xa;" label="&lt;b&gt;%c4Name%&lt;/b&gt;&lt;div&gt;[%c4Type%]&lt;/div&gt;&lt;br&gt;&lt;div&gt;%c4Description%&lt;/div&gt;" id="3CHzZll-UO-xtZC3JVt_-4">
          <mxCell style="rounded=1;whiteSpace=wrap;html=1;labelBackgroundColor=none;fillColor=#1168BD;fontColor=#ffffff;align=center;arcSize=10;strokeColor=#1168BD;metaEdit=1;metaData={&quot;c4Type&quot;:{&quot;editable&quot;:false}};points=[[0.25,0,0],[0.5,0,0],[0.75,0,0],[1,0.25,0],[1,0.5,0],[1,0.75,0],[0.75,1,0],[0.5,1,0],[0.25,1,0],[0,0.75,0],[0,0.5,0],[0,0.25,0]];" parent="1" vertex="1">
            <mxGeometry x="310" y="270" width="160" height="110.00000000000001" as="geometry" />
          </mxCell>
        </object>
        <object placeholders="1" c4Name="Sistema de comunicaciones" c4Type="Software System" c4Description="Description" label="&lt;b&gt;%c4Name%&lt;/b&gt;&lt;div&gt;[%c4Type%]&lt;/div&gt;&lt;br&gt;&lt;div&gt;%c4Description%&lt;/div&gt;" id="DAYWDoBDdN8zVbQUzcvG-1">
          <mxCell style="rounded=1;whiteSpace=wrap;html=1;labelBackgroundColor=none;fillColor=#999999;fontColor=#ffffff;align=center;arcSize=10;strokeColor=#8A8A8A;metaEdit=1;metaData={&quot;c4Type&quot;:{&quot;editable&quot;:false}};points=[[0.25,0,0],[0.5,0,0],[0.75,0,0],[1,0.25,0],[1,0.5,0],[1,0.75,0],[0.75,1,0],[0.5,1,0],[0.25,1,0],[0,0.75,0],[0,0.5,0],[0,0.25,0]];" vertex="1" parent="1">
            <mxGeometry x="310" y="430" width="160" height="110.00000000000001" as="geometry" />
          </mxCell>
        </object>
        <mxCell id="-Lqm2yaZGU0IRBBUcbuY-1" value="&lt;h1&gt;Supuestos:&lt;/h1&gt;&lt;p&gt;- Interacción con el cliente y el app&lt;/p&gt;&lt;p&gt;-&amp;nbsp; se incluye prestamos inferiores a 100 mi soles&lt;/p&gt;&lt;p&gt;- Se incluye que el cliente debe tener un correo electrónico y debe estar registrado&lt;/p&gt;" style="text;html=1;strokeColor=none;fillColor=none;spacing=5;spacingTop=-20;whiteSpace=wrap;overflow=hidden;rounded=0;labelBackgroundColor=none;fontColor=#000000;" vertex="1" parent="1">
          <mxGeometry x="530" y="80" width="280" height="130" as="geometry" />
        </mxCell>
        <mxCell id="tXD4TYbuMV8zxDQI8QWA-3" value="" style="endArrow=classic;html=1;fontColor=#000000;entryX=0.5;entryY=0;entryDx=0;entryDy=0;entryPerimeter=0;" edge="1" parent="1" target="3CHzZll-UO-xtZC3JVt_-4">
          <mxGeometry width="50" height="50" relative="1" as="geometry">
            <mxPoint x="390" y="210" as="sourcePoint" />
            <mxPoint x="610" y="20" as="targetPoint" />
          </mxGeometry>
        </mxCell>
        <object placeholders="1" c4Name="SBS" c4Type="Person" c4Description="Agencia reguladora" label="&lt;b&gt;%c4Name%&lt;/b&gt;&lt;div&gt;[%c4Type%]&lt;/div&gt;&lt;br&gt;&lt;div&gt;%c4Description%&lt;/div&gt;" id="tXD4TYbuMV8zxDQI8QWA-4">
          <mxCell style="html=1;dashed=0;whitespace=wrap;fillColor=#08427b;strokeColor=none;fontColor=#ffffff;shape=mxgraph.c4.person;align=center;metaEdit=1;points=[[0.5,0,0],[1,0.5,0],[1,0.75,0],[0.75,1,0],[0.5,1,0],[0.25,1,0],[0,0.75,0],[0,0.5,0]];metaData={&quot;c4Type&quot;:{&quot;editable&quot;:false}};labelBackgroundColor=none;" vertex="1" parent="1">
            <mxGeometry x="560" y="230" width="110.00000000000001" height="140" as="geometry" />
          </mxCell>
        </object>
        <mxCell id="tXD4TYbuMV8zxDQI8QWA-5" value="" style="endArrow=classic;html=1;fontColor=#000000;exitX=1;exitY=0.5;exitDx=0;exitDy=0;exitPerimeter=0;entryX=0;entryY=0.686;entryDx=0;entryDy=0;entryPerimeter=0;" edge="1" parent="1" source="3CHzZll-UO-xtZC3JVt_-4" target="tXD4TYbuMV8zxDQI8QWA-4">
          <mxGeometry width="50" height="50" relative="1" as="geometry">
            <mxPoint x="460" y="360" as="sourcePoint" />
            <mxPoint x="510" y="310" as="targetPoint" />
          </mxGeometry>
        </mxCell>
        <mxCell id="tXD4TYbuMV8zxDQI8QWA-6" value="" style="endArrow=classic;html=1;fontColor=#000000;entryX=0.5;entryY=0;entryDx=0;entryDy=0;entryPerimeter=0;" edge="1" parent="1" target="DAYWDoBDdN8zVbQUzcvG-1">
          <mxGeometry width="50" height="50" relative="1" as="geometry">
            <mxPoint x="389" y="380" as="sourcePoint" />
            <mxPoint x="439" y="330" as="targetPoint" />
          </mxGeometry>
        </mxCell>
      </root>
    </mxGraphModel>
  </diagram>
  <diagram id="nfvR717AgfQVxN405KP0" name="Diagrama de dominio">
    <mxGraphModel dx="1102" dy="525" grid="1" gridSize="10" guides="1" tooltips="1" connect="1" arrows="1" fold="1" page="1" pageScale="1" pageWidth="827" pageHeight="1169" math="0" shadow="0">
      <root>
        <mxCell id="v-mTHR38-jfzETFaX6JN-0" />
        <mxCell id="v-mTHR38-jfzETFaX6JN-1" parent="v-mTHR38-jfzETFaX6JN-0" />
        <mxCell id="U63JjPcG6R431JQoDWNm-13" value="Gestión de Préstamo" style="shape=folder;fontStyle=1;spacingTop=10;tabWidth=40;tabHeight=14;tabPosition=left;html=1;strokeColor=#FFFF66;fillColor=#FFFF66;labelBackgroundColor=none;" vertex="1" parent="v-mTHR38-jfzETFaX6JN-1">
          <mxGeometry x="310" y="280" width="230" height="130" as="geometry" />
        </mxCell>
        <mxCell id="kbltqLRZ4333dKJM8rQY-0" value="&lt;font color=&quot;#000000&quot;&gt;Gestion de Participantes&lt;/font&gt;" style="shape=folder;fontStyle=1;spacingTop=10;tabWidth=40;tabHeight=14;tabPosition=left;html=1;labelBackgroundColor=none;fontColor=#ffffff;strokeColor=#006EAF;fillColor=#1ba1e2;" vertex="1" parent="v-mTHR38-jfzETFaX6JN-1">
          <mxGeometry x="100" y="90" width="220" height="130" as="geometry" />
        </mxCell>
        <mxCell id="kbltqLRZ4333dKJM8rQY-1" value="" style="endArrow=classic;html=1;fontColor=#000000;entryX=0.75;entryY=1;entryDx=0;entryDy=0;entryPerimeter=0;exitX=0;exitY=0;exitDx=0;exitDy=72;exitPerimeter=0;" edge="1" parent="v-mTHR38-jfzETFaX6JN-1" source="U63JjPcG6R431JQoDWNm-13" target="kbltqLRZ4333dKJM8rQY-0">
          <mxGeometry width="50" height="50" relative="1" as="geometry">
            <mxPoint x="390" y="300" as="sourcePoint" />
            <mxPoint x="440" y="250" as="targetPoint" />
          </mxGeometry>
        </mxCell>
        <mxCell id="kbltqLRZ4333dKJM8rQY-2" value="- Empleados&#xa;- Clientes&#xa;- Prospectos" style="text;strokeColor=none;fillColor=none;align=left;verticalAlign=top;spacingLeft=4;spacingRight=4;overflow=hidden;rotatable=0;points=[[0,0.5],[1,0.5]];portConstraint=eastwest;labelBackgroundColor=none;fontColor=#000000;" vertex="1" parent="v-mTHR38-jfzETFaX6JN-1">
          <mxGeometry x="330" y="110" width="110" height="70" as="geometry" />
        </mxCell>
        <mxCell id="kH0pY7kP5LC1QjFwSGVA-0" value="Gestión de Notificaciones" style="shape=folder;fontStyle=1;spacingTop=10;tabWidth=40;tabHeight=14;tabPosition=left;html=1;labelBackgroundColor=none;fontColor=#ffffff;strokeColor=#006EAF;fillColor=#1ba1e2;" vertex="1" parent="v-mTHR38-jfzETFaX6JN-1">
          <mxGeometry x="110" y="480" width="180" height="130" as="geometry" />
        </mxCell>
        <mxCell id="kH0pY7kP5LC1QjFwSGVA-1" value="" style="endArrow=classic;html=1;fontColor=#000000;entryX=0;entryY=0;entryDx=120;entryDy=14;entryPerimeter=0;exitX=0;exitY=0;exitDx=0;exitDy=130;exitPerimeter=0;" edge="1" parent="v-mTHR38-jfzETFaX6JN-1" source="U63JjPcG6R431JQoDWNm-13" target="kH0pY7kP5LC1QjFwSGVA-0">
          <mxGeometry width="50" height="50" relative="1" as="geometry">
            <mxPoint x="410" y="410" as="sourcePoint" />
            <mxPoint x="420" y="450" as="targetPoint" />
          </mxGeometry>
        </mxCell>
        <mxCell id="kH0pY7kP5LC1QjFwSGVA-2" value="- Notifcaciones diarias" style="text;strokeColor=none;fillColor=none;align=left;verticalAlign=top;spacingLeft=4;spacingRight=4;overflow=hidden;rotatable=0;points=[[0,0.5],[1,0.5]];portConstraint=eastwest;labelBackgroundColor=none;fontColor=#000000;" vertex="1" parent="v-mTHR38-jfzETFaX6JN-1">
          <mxGeometry x="320" y="500" width="190" height="70" as="geometry" />
        </mxCell>
      </root>
    </mxGraphModel>
  </diagram>
</mxfile>
